<svg width="66" height="68" viewBox="0 0 66 68" fill="none" xmlns="http://www.w3.org/2000/svg">
<g clip-path="url(#clip0)">
<path d="M63.1011 5.13513H2.89888C1.29813 5.13513 0 6.46115 0 8.09629V49.0881C0 50.7237 1.29813 52.0492 2.89888 52.0492H25.8759V57.2247H23.1397C21.762 57.2247 20.6446 58.3656 20.6446 59.7734C20.6446 61.1806 21.762 62.322 23.1397 62.322H42.8603C44.2385 62.322 45.3554 61.1806 45.3554 59.7734C45.3554 58.3656 44.238 57.2247 42.8603 57.2247H40.1241V52.0492H63.1011C64.7019 52.0492 66 50.7237 66 49.0881V8.09629C66 6.46115 64.7019 5.13513 63.1011 5.13513V5.13513ZM43.4228 59.7734C43.4228 60.0907 43.171 60.3479 42.8603 60.3479H23.1397C22.829 60.3479 22.5772 60.0907 22.5772 59.7734C22.5772 59.456 22.829 59.1988 23.1397 59.1988H42.8598C43.1705 59.1988 43.4228 59.456 43.4228 59.7734ZM64.0674 49.0881C64.0674 49.6323 63.6339 50.0751 63.1011 50.0751H32.8066C32.2729 50.0751 31.8403 50.517 31.8403 51.0622C31.8403 51.6074 32.2729 52.0492 32.8066 52.0492H38.191V57.2247H27.809V52.0492H28.2969C28.8307 52.0492 29.2632 51.6074 29.2632 51.0622C29.2632 50.517 28.8307 50.0751 28.2969 50.0751H2.89888C2.36613 50.0751 1.93259 49.6323 1.93259 49.0881V8.09629C1.93259 7.5521 2.36613 7.10924 2.89888 7.10924H63.1011C63.6339 7.10924 64.0674 7.5521 64.0674 8.09629V49.0881Z" fill="white"/>
<path d="M60.4423 9.58215H5.55344C4.6657 9.58215 3.94312 10.3197 3.94312 11.2271V44.2391C3.94312 45.1459 4.6657 45.884 5.55344 45.884H60.4423C61.3301 45.884 62.0527 45.1459 62.0527 44.2391V11.2271C62.0527 10.3197 61.3301 9.58215 60.4423 9.58215ZM12.8754 11.5563V22.546H9.48357C8.94931 22.546 8.51677 22.9879 8.51677 23.5331C8.51677 24.0783 8.94931 24.5201 9.48357 24.5201H12.8754V30.0443C12.8754 30.2259 12.7309 30.3735 12.5531 30.3735H5.8757V11.5563H12.8754ZM5.8757 43.9099V32.3476H12.5531C13.7964 32.3476 14.808 31.3143 14.808 30.0443V11.5563H60.1201V30.3185H52.926C52.7487 30.3185 52.6042 30.1709 52.6042 29.9893V15.1172C52.6042 14.5719 52.1712 14.1296 51.6374 14.1296C51.1037 14.1296 50.6711 14.5714 50.6711 15.1172V29.9893C50.6711 31.2593 51.6827 32.2926 52.926 32.2926H60.1201V43.9099H5.8757Z" fill="white"/>
<path d="M58.3864 39.0756H50.5669C50.152 37.6822 48.8831 36.6653 47.3851 36.6653C45.887 36.6653 44.6176 37.6822 44.2027 39.0756H20.4014C19.9864 37.6822 18.717 36.6653 17.219 36.6653C15.7215 36.6653 14.452 37.6822 14.0371 39.0756H8.0742C7.54045 39.0756 7.10791 39.5174 7.10791 40.0626C7.10791 40.6078 7.54045 41.0502 8.0742 41.0502H14.0366C14.4515 42.4436 15.721 43.4605 17.219 43.4605C18.717 43.4605 19.9864 42.4436 20.4014 41.0502H44.2027C44.6176 42.4436 45.887 43.4605 47.3846 43.4605C48.8826 43.4605 50.152 42.4436 50.5669 41.0502H58.3859C58.9197 41.0502 59.3522 40.6078 59.3522 40.0626C59.3527 39.5174 58.9197 39.0756 58.3864 39.0756ZM17.219 41.4859C16.4511 41.4859 15.8262 40.8475 15.8262 40.0626C15.8262 39.2777 16.4511 38.6394 17.219 38.6394C17.9874 38.6394 18.6123 39.2777 18.6123 40.0626C18.6123 40.8475 17.9874 41.4859 17.219 41.4859ZM47.3851 41.4859C46.6167 41.4859 45.9918 40.8475 45.9918 40.0626C45.9918 39.2777 46.6167 38.6394 47.3851 38.6394C48.153 38.6394 48.7779 39.2777 48.7779 40.0626C48.7779 40.8475 48.153 41.4859 47.3851 41.4859Z" fill="white"/>
<path d="M58.3864 34.2395H30.2038C29.7889 32.8461 28.5194 31.8292 27.0214 31.8292C25.5239 31.8292 24.2545 32.8461 23.8395 34.2395H8.0742C7.54045 34.2395 7.10791 34.6813 7.10791 35.2266C7.10791 35.7723 7.54045 36.2141 8.0742 36.2141H23.8395C24.2545 37.6075 25.5239 38.6244 27.0214 38.6244C28.5194 38.6244 29.7889 37.6075 30.2038 36.2141H58.3859C58.9197 36.2141 59.3527 35.7723 59.3527 35.2266C59.3527 34.6813 58.9197 34.2395 58.3864 34.2395ZM27.0214 36.6498C26.254 36.6498 25.6291 36.012 25.6286 35.2281C25.6286 35.2276 25.6286 35.2271 25.6286 35.2266C25.6286 35.226 25.6286 35.226 25.6286 35.2255C25.6291 34.4411 26.254 33.8033 27.0214 33.8033C27.7898 33.8033 28.4147 34.4416 28.4147 35.2266C28.4147 36.0115 27.7898 36.6498 27.0214 36.6498Z" fill="white"/>
<path d="M27.6994 30.977C28.0524 31.1853 28.4397 31.2892 28.8274 31.2892C29.2141 31.2892 29.6013 31.1853 29.9543 30.977L41.7477 24.0219C42.4537 23.6057 42.8751 22.8599 42.8751 22.0272C42.8751 21.1949 42.4537 20.4491 41.7477 20.0325L29.9543 13.0773C29.2488 12.6612 28.4054 12.6612 27.6994 13.0773C26.9935 13.494 26.572 14.2398 26.572 15.072V28.9823C26.572 29.8151 26.9935 30.5609 27.6994 30.977ZM28.5051 15.072C28.5051 14.9069 28.6058 14.8226 28.6657 14.7871C28.7015 14.766 28.7584 14.7413 28.8279 14.7413C28.8762 14.7413 28.9306 14.7531 28.988 14.7871L40.7814 21.7422C40.9214 21.8245 40.942 21.9562 40.942 22.0272C40.942 22.0982 40.9214 22.2293 40.7814 22.3121L28.988 29.2673C28.848 29.3501 28.7262 29.3028 28.6657 29.2673C28.6058 29.2318 28.5051 29.1474 28.5051 28.9823V15.072Z" fill="white"/>
</g>
<defs>
<clipPath id="clip0">
<rect width="66" height="67.418" fill="white"/>
</clipPath>
</defs>
</svg>
