<svg width="66" height="68" viewBox="0 0 66 68" fill="none" xmlns="http://www.w3.org/2000/svg">
<g clip-path="url(#clip0)">
<path d="M12.5668 55.5522H5.15417C4.44267 55.5522 3.86511 56.1417 3.86511 56.869V61.0826C3.86511 61.8094 4.44267 62.3994 5.15417 62.3994H12.5668C13.2788 62.3994 13.8559 61.8094 13.8559 61.0826V56.869C13.8559 56.1417 13.2788 55.5522 12.5668 55.5522ZM11.2777 59.7659H6.44324V58.1858H11.2777V59.7659Z" fill="white"/>
<path d="M24.6377 55.5522H17.2251C16.5131 55.5522 15.936 56.1417 15.936 56.869V61.0826C15.936 61.8094 16.5131 62.3994 17.2251 62.3994H24.6377C25.3497 62.3994 25.9268 61.8094 25.9268 61.0826V56.869C25.9268 56.1417 25.3497 55.5522 24.6377 55.5522ZM23.3486 59.7659H18.5142V58.1858H23.3486V59.7659Z" fill="white"/>
<path d="M36.7066 55.5522H29.2935C28.582 55.5522 28.0044 56.1417 28.0044 56.869V61.0826C28.0044 61.8094 28.582 62.3994 29.2935 62.3994H36.7066C37.4181 62.3994 37.9956 61.8094 37.9956 61.0826V56.869C37.9956 56.1417 37.4181 55.5522 36.7066 55.5522ZM35.4175 59.7659H30.5825V58.1858H35.4175V59.7659Z" fill="white"/>
<path d="M48.7749 55.5522H41.3623C40.6503 55.5522 40.0732 56.1417 40.0732 56.869V61.0826C40.0732 61.8094 40.6503 62.3994 41.3623 62.3994H48.7749C49.4869 62.3994 50.064 61.8094 50.064 61.0826V56.869C50.064 56.1417 49.4869 55.5522 48.7749 55.5522ZM47.4859 59.7659H42.6514V58.1858H47.4859V59.7659Z" fill="white"/>
<path d="M60.8438 55.5522H53.4312C52.7191 55.5522 52.1421 56.1417 52.1421 56.869V61.0826C52.1421 61.8094 52.7191 62.3994 53.4312 62.3994H60.8438C61.5553 62.3994 62.1328 61.8094 62.1328 61.0826V56.869C62.1328 56.1417 61.5553 55.5522 60.8438 55.5522ZM59.5547 59.7659H54.7202V58.1858H59.5547V59.7659Z" fill="white"/>
<path d="M5.15417 12.3632C4.44267 12.3632 3.86511 12.9526 3.86511 13.6799V17.8935C3.86511 18.6208 4.44267 19.2103 5.15417 19.2103H12.5668C13.2788 19.2103 13.8559 18.6208 13.8559 17.8935V13.6799C13.8559 12.9526 13.2788 12.3632 12.5668 12.3632H5.15417ZM11.2777 16.5768H6.44324V14.9967H11.2777V16.5768Z" fill="white"/>
<path d="M17.2251 19.2103H24.6377C25.3497 19.2103 25.9268 18.6208 25.9268 17.8935V13.6799C25.9268 12.9526 25.3497 12.3632 24.6377 12.3632H17.2251C16.5131 12.3632 15.936 12.9526 15.936 13.6799V17.8935C15.936 18.6208 16.5131 19.2103 17.2251 19.2103ZM18.5142 14.9967H23.3486V16.5768H18.5142V14.9967Z" fill="white"/>
<path d="M36.7066 19.2103C37.4181 19.2103 37.9956 18.6208 37.9956 17.8935V13.6799C37.9956 12.9526 37.4181 12.3632 36.7066 12.3632H29.2935C28.582 12.3632 28.0044 12.9526 28.0044 13.6799V17.8935C28.0044 18.6208 28.582 19.2103 29.2935 19.2103H36.7066ZM30.5825 14.9967H35.4175V16.5768H30.5825V14.9967Z" fill="white"/>
<path d="M57.0036 54.2343H57.0061C57.7177 54.2343 58.2935 53.6452 58.2935 52.9183C58.2935 52.1914 57.7152 51.6023 57.0036 51.6023C56.292 51.6023 55.7152 52.1914 55.7152 52.9183C55.7152 53.6452 56.292 54.2343 57.0036 54.2343Z" fill="white"/>
<path d="M12.1019 11.0446C12.813 11.0446 13.3903 10.4555 13.3903 9.72859C13.3903 9.00171 12.813 8.4126 12.1019 8.4126H12.0989C11.3878 8.4126 10.812 9.00171 10.812 9.72859C10.812 10.4555 11.3903 11.0446 12.1019 11.0446Z" fill="white"/>
<path d="M63.3705 8.48995C64.1299 7.49672 64.9113 6.47675 65.7246 5.41871C66.1279 4.89458 66.0841 4.14568 65.6223 3.67452L63.5598 1.5672C63.0986 1.09605 62.3649 1.0513 61.8518 1.46278C59.7536 3.14628 57.8069 4.69501 55.9247 6.19282C54.9649 6.95716 54.0379 7.69475 53.1421 8.40919H17.2865C16.5745 8.40919 15.9975 8.99865 15.9975 9.72595C15.9975 10.4533 16.5745 11.0427 17.2865 11.0427H49.8585C49.3031 11.4912 48.7633 11.9295 48.2371 12.3595H41.3623C40.6503 12.3595 40.0732 12.9489 40.0732 13.6762V17.8898C40.0732 18.3378 40.2928 18.7334 40.6276 18.971C40.0783 19.4988 39.5596 20.0157 39.0712 20.5239H2.57812V11.8328C2.57812 11.4048 2.93211 11.0427 3.35156 11.0427H8.39603C9.10803 11.0427 9.68509 10.4533 9.68509 9.72595C9.68509 8.99865 9.10803 8.40919 8.39603 8.40919H3.35156C1.50357 8.40919 0 9.94507 0 11.8328V62.9229C0 64.8106 1.50357 66.3465 3.35156 66.3465H62.6484C64.4964 66.3465 66 64.8106 66 62.9229V11.8328C66 10.1981 64.8726 8.82839 63.3705 8.48995ZM62.6484 11.0427C63.0679 11.0427 63.4219 11.4048 63.4219 11.8328V20.5239H54.1139C54.4533 20.0949 54.7988 19.6561 55.1502 19.2066H60.8438C61.5553 19.2066 62.1328 18.6171 62.1328 17.8898V13.6762C62.1328 12.9489 61.5553 12.3595 60.8438 12.3595H60.4178C60.6413 12.0663 60.8669 11.771 61.095 11.4717C61.2038 11.3292 61.313 11.1857 61.4223 11.0427H62.6484ZM57.6714 15.9507C57.9162 15.6318 58.1609 15.3124 58.4056 14.993H59.5547V16.5731H57.1926C57.3059 16.426 57.4227 16.2748 57.5405 16.121C57.5838 16.0644 57.6276 16.0073 57.6714 15.9507ZM57.5093 8.27031C59.1221 6.98699 60.7818 5.66612 62.5447 4.25472L62.9913 4.71096C61.6101 6.51121 60.3176 8.20602 59.0612 9.85299C58.2661 10.8961 57.5007 11.8991 56.7621 12.8651C56.7621 12.8651 56.7621 12.8656 56.7616 12.8656C55.4347 14.6 54.4352 15.8967 53.5213 17.0694C53.5193 17.0725 53.5177 17.0756 53.5152 17.0782C52.4306 18.47 51.4079 19.7621 50.4366 20.9544C50.4109 20.9832 50.3867 21.0135 50.3631 21.0444C46.0593 26.3207 42.7571 29.6506 39.4785 31.2256L36.5877 28.2727C37.3979 26.5131 38.6824 24.7473 40.4675 22.8297C40.5259 22.7773 40.5798 22.7202 40.6281 22.6579C41.7319 21.4867 43.021 20.2574 44.5019 18.9386C44.525 18.9206 44.5487 18.9026 44.5708 18.8826C45.9203 17.6815 47.5317 16.3144 49.497 14.7034C49.5045 14.6972 49.5106 14.691 49.5176 14.6849C51.8656 12.7617 54.5248 10.6456 57.5093 8.27031ZM34.7307 30.1007L37.6688 33.1015C36.1436 36.6469 33.7462 38.2008 29.9158 38.0835C30.3081 37.1361 30.5845 36.2216 30.8398 35.3765C31.5845 32.9122 32.0972 31.2174 34.7307 30.1007ZM42.6514 16.5731V14.993H45.0699C44.4344 15.5331 43.8251 16.0592 43.2425 16.5731H42.6514ZM62.6484 63.713H3.35156C2.93211 63.713 2.57812 63.3509 2.57812 62.9229V54.2323H51.8203C52.5323 54.2323 53.1094 53.6424 53.1094 52.9156C53.1094 52.1883 52.5323 51.5988 51.8203 51.5988H2.57812V23.1569H36.7609C35.6003 24.6326 34.7135 26.0676 34.0861 27.531C30.0392 29.1095 29.1932 31.8979 28.3765 34.5998C27.9857 35.8924 27.5814 37.2297 26.8065 38.5408C26.5824 38.9194 26.5597 39.3874 26.7455 39.7866C26.9313 40.1862 27.3009 40.4635 27.7299 40.5252C28.6449 40.6569 29.509 40.7227 30.3252 40.7227C32.5901 40.7227 34.4865 40.214 36.0746 39.1868C37.8355 38.0481 39.1825 36.2792 40.183 33.7902C43.9142 32.1288 47.4556 28.6698 51.9915 23.1569H63.4219V51.5983H60.7103C59.9988 51.5983 59.4212 52.1878 59.4212 52.9151C59.4212 53.6424 59.9988 54.2318 60.7103 54.2318H63.4219V62.9229C63.4219 63.3509 63.0679 63.713 62.6484 63.713Z" fill="white"/>
</g>
<defs>
<clipPath id="clip0">
<rect width="66" height="67.418" fill="white"/>
</clipPath>
</defs>
</svg>
