<svg width="66" height="68" viewBox="0 0 66 68" fill="none" xmlns="http://www.w3.org/2000/svg">
<g clip-path="url(#clip0)">
<path d="M60.5 15.7309V12.36C60.4962 9.25845 58.0363 6.74564 55 6.7418H28.0162L27.2701 4.07427C26.588 1.66734 24.4342 0.00822974 21.9812 0H5.5C2.46372 0.00384055 0.00375977 2.51665 0 5.61816V61.7998C0.00375977 64.9013 2.46372 67.4141 5.5 67.418H60.5C63.5363 67.4141 65.9962 64.9013 66 61.7998V21.349C65.9962 18.2475 63.5363 15.7347 60.5 15.7309ZM55 8.98906C56.8224 8.98906 58.3 10.4984 58.3 12.36V15.7309H33.0188C31.5471 15.7254 30.2548 14.7296 29.845 13.2861L28.644 8.98906H55ZM63.8 61.7998C63.8 63.6614 62.3224 65.1707 60.5 65.1707H5.5C3.67759 65.1707 2.2 63.6614 2.2 61.7998V5.61816C2.2 3.7566 3.67759 2.24727 5.5 2.24727H21.9812C23.4529 2.25275 24.7452 3.24855 25.155 4.69204L27.7299 13.9061C28.4131 16.3119 30.5664 17.9699 33.0188 17.9781H60.5C62.3224 17.9781 63.8 19.4875 63.8 21.349V61.7998Z" fill="white"/>
<path d="M39.6 33.7091C41.4225 33.7091 42.9 32.1998 42.9 30.3382C42.9 28.4766 41.4225 26.9673 39.6 26.9673C37.7776 26.9673 36.3 28.4766 36.3 30.3382C36.3 32.1998 37.7776 33.7091 39.6 33.7091ZM39.6 29.2146C40.2075 29.2146 40.7 29.7177 40.7 30.3382C40.7 30.9587 40.2075 31.4618 39.6 31.4618C38.9926 31.4618 38.5 30.9587 38.5 30.3382C38.5 29.7177 38.9926 29.2146 39.6 29.2146Z" fill="white"/>
<path d="M25.2999 30.3382C25.2999 28.4766 23.8224 26.9673 21.9999 26.9673C20.1775 26.9673 18.7 28.4766 18.7 30.3382C18.7 32.1998 20.1775 33.7091 21.9999 33.7091C23.8224 33.7091 25.2999 32.1998 25.2999 30.3382ZM20.9 30.3382C20.9 29.7177 21.3925 29.2146 21.9999 29.2146C22.6074 29.2146 23.0999 29.7177 23.0999 30.3382C23.0999 30.9587 22.6074 31.4618 21.9999 31.4618C21.3925 31.4618 20.9 30.9587 20.9 30.3382Z" fill="white"/>
<path d="M34.1 60.6762V56.1817H36.3V51.6871H42.9V48.3162H45.9798L55 52.2682V35.3753L45.9798 39.3272H42.9V37.4338C45.7225 36.0726 47.4627 33.1071 47.308 29.9228C47.1533 26.7384 45.1338 23.9634 42.1931 22.8946C39.2525 21.8258 35.9713 22.6735 33.8819 25.042C31.7926 27.4105 31.3075 30.8324 32.6535 33.709H28.9464C29.4416 32.6573 29.6989 31.5051 29.7 30.3381C29.7053 26.4394 26.914 23.1256 23.1397 22.5484C19.3649 21.9718 15.7464 24.3057 14.6341 28.0349C13.5222 31.7641 15.2517 35.7632 18.7 37.4338V39.3272H14.3V48.3162H18.7V51.6871H25.3V56.1817H27.5V60.6762H34.1ZM31.9 58.4289H29.7V56.1817H31.9V58.4289ZM52.8 48.8589L47.3 46.4519V41.1915L52.8 38.7846V48.8589ZM45.1 41.5744V46.069H42.9V41.5744H45.1ZM39.6 24.72C42.6373 24.72 45.1 27.2355 45.1 30.3381C45.1 33.4407 42.6373 35.9563 39.6 35.9563C36.5626 35.9563 34.1 33.4407 34.1 30.3381C34.1037 27.2366 36.5637 24.7238 39.6 24.72ZM16.5 30.3381C16.5 27.2355 18.9626 24.72 22 24.72C25.0373 24.72 27.5 27.2355 27.5 30.3381C27.5 33.4407 25.0373 35.9563 22 35.9563C18.9637 35.9524 16.5037 33.4396 16.5 30.3381ZM16.5 46.069V41.5744H18.7V46.069H16.5ZM20.9 49.4399V38.1136C23.2724 38.4872 25.6776 37.6862 27.3791 35.9563H34.2208C35.9224 37.6862 38.3276 38.4872 40.7 38.1136V49.4399H20.9ZM27.5 51.6871H34.1V53.9344H27.5V51.6871Z" fill="white"/>
<path d="M36.3001 38.2035H25.3V44.9453H36.3001V38.2035ZM34.1001 42.698H27.5V40.4508H34.1001V42.698Z" fill="white"/>
</g>
<defs>
<clipPath id="clip0">
<rect width="66" height="67.418" fill="white"/>
</clipPath>
</defs>
</svg>
