<svg width="66" height="68" fill="none" xmlns="http://www.w3.org/2000/svg"><g clip-path="url(#clip0)" fill="#fff"><path d="M60.5 15.73v-3.37c-.004-3.102-2.464-5.614-5.5-5.618H28.016l-.746-2.668C26.588 1.667 24.434.008 21.981 0H5.5C2.464.004.004 2.517 0 5.618V61.8c.004 3.101 2.464 5.614 5.5 5.618h55c3.036-.004 5.496-2.517 5.5-5.618V21.349c-.004-3.102-2.464-5.614-5.5-5.618zM55 8.99c1.822 0 3.3 1.508 3.3 3.37v3.37H33.019c-1.472-.005-2.764-1-3.174-2.444L28.644 8.99H55zm8.8 52.81c0 1.861-1.478 3.37-3.3 3.37h-55c-1.822 0-3.3-1.509-3.3-3.37V5.618c0-1.861 1.478-3.37 3.3-3.37h16.481c1.472.005 2.764 1 3.174 2.444l2.575 9.214c.683 2.406 2.836 4.064 5.289 4.072H60.5c1.822 0 3.3 1.51 3.3 3.371v40.45z"/><path d="M39.6 33.71c1.822 0 3.3-1.51 3.3-3.372 0-1.861-1.477-3.37-3.3-3.37-1.822 0-3.3 1.509-3.3 3.37 0 1.862 1.478 3.371 3.3 3.371zm0-4.495c.608 0 1.1.503 1.1 1.123s-.492 1.124-1.1 1.124c-.607 0-1.1-.503-1.1-1.124 0-.62.493-1.123 1.1-1.123zm-14.3 1.123c0-1.861-1.478-3.37-3.3-3.37-1.823 0-3.3 1.509-3.3 3.37 0 1.862 1.477 3.371 3.3 3.371 1.822 0 3.3-1.51 3.3-3.37zm-4.4 0c0-.62.492-1.123 1.1-1.123.607 0 1.1.503 1.1 1.123s-.493 1.124-1.1 1.124c-.608 0-1.1-.503-1.1-1.124z"/><path d="M34.1 60.676v-4.494h2.2v-4.495h6.6v-3.37h3.08l9.02 3.95V35.375l-9.02 3.952H42.9v-1.893c2.822-1.361 4.563-4.327 4.408-7.511-.155-3.185-2.174-5.96-5.115-7.028-2.94-1.07-6.222-.221-8.311 2.147-2.09 2.368-2.574 5.79-1.228 8.667h-3.708a7.934 7.934 0 00.754-3.37c.005-3.9-2.786-7.213-6.56-7.79-3.775-.577-7.394 1.757-8.506 5.486-1.112 3.73.618 7.728 4.066 9.399v1.893h-4.4v8.99h4.4v3.37h6.6v4.495h2.2v4.494h6.6zm-2.2-2.247h-2.2v-2.247h2.2v2.247zm20.9-9.57l-5.5-2.407v-5.26l5.5-2.407v10.074zm-7.7-7.285v4.495h-2.2v-4.495h2.2zM39.6 24.72c3.037 0 5.5 2.515 5.5 5.618s-2.463 5.618-5.5 5.618-5.5-2.515-5.5-5.618c.004-3.101 2.464-5.614 5.5-5.618zm-23.1 5.618c0-3.103 2.463-5.618 5.5-5.618s5.5 2.515 5.5 5.618-2.463 5.618-5.5 5.618c-3.036-.004-5.496-2.516-5.5-5.618zm0 15.731v-4.495h2.2v4.495h-2.2zm4.4 3.37V38.115a7.455 7.455 0 006.48-2.158h6.84a7.455 7.455 0 006.48 2.158V49.44H20.9zm6.6 2.248h6.6v2.247h-6.6v-2.247z"/><path d="M36.3 38.203h-11v6.742h11v-6.742zm-2.2 4.495h-6.6v-2.247h6.6v2.247z"/></g><defs><clipPath id="clip0"><path fill="#fff" d="M0 0h66v67.418H0z"/></clipPath></defs></svg>