<svg width="66" height="68" fill="none" xmlns="http://www.w3.org/2000/svg"><g clip-path="url(#clip0)" fill="#fff"><path d="M63.101 5.135H2.9C1.299 5.135 0 6.461 0 8.096v40.992c0 1.636 1.298 2.961 2.899 2.961h22.977v5.176H23.14c-1.378 0-2.495 1.14-2.495 2.548 0 1.408 1.117 2.549 2.495 2.549h19.72c1.379 0 2.495-1.141 2.495-2.549 0-1.407-1.117-2.548-2.495-2.548h-2.736v-5.176h22.977c1.6 0 2.899-1.325 2.899-2.96V8.095c0-1.635-1.298-2.96-2.899-2.96zM43.423 59.773a.569.569 0 01-.563.575H23.14a.569.569 0 01-.563-.575c0-.317.252-.574.563-.574h19.72a.57.57 0 01.563.574zm20.644-10.685a.978.978 0 01-.966.987H32.807a.977.977 0 00-.967.987c0 .545.433.987.967.987h5.384v5.176H27.809v-5.176h.488a.977.977 0 00.966-.987.977.977 0 00-.966-.987H2.899a.978.978 0 01-.966-.987V8.096c0-.544.433-.987.966-.987H63.1c.533 0 .966.443.966.987v40.992z"/><path d="M60.442 9.582H5.553c-.887 0-1.61.738-1.61 1.645V44.24c0 .907.723 1.645 1.61 1.645h54.89c.887 0 1.61-.738 1.61-1.645V11.227c0-.907-.723-1.645-1.61-1.645zm-47.567 1.974v10.99H9.484a.977.977 0 00-.967.987c0 .545.432.987.967.987h3.391v5.524c0 .182-.144.33-.322.33H5.876V11.555h7zm-7 32.354V32.348h6.678c1.243 0 2.255-1.034 2.255-2.304V11.556H60.12V30.32h-7.194a.326.326 0 01-.322-.33V15.117a.978.978 0 00-.967-.987.977.977 0 00-.966.987V29.99c0 1.27 1.012 2.304 2.255 2.304h7.194V43.91H5.876z"/><path d="M58.386 39.076h-7.82c-.414-1.394-1.683-2.41-3.18-2.41-1.499 0-2.768 1.016-3.183 2.41H20.4c-.415-1.394-1.684-2.41-3.182-2.41s-2.767 1.016-3.182 2.41H8.074a.977.977 0 00-.966.987c0 .545.432.987.966.987h5.963c.414 1.394 1.684 2.41 3.182 2.41s2.767-1.016 3.182-2.41h23.802c.415 1.394 1.684 2.41 3.182 2.41s2.767-1.016 3.182-2.41h7.819a.977.977 0 00.966-.987.976.976 0 00-.966-.987zm-41.167 2.41c-.768 0-1.393-.639-1.393-1.423 0-.785.625-1.424 1.393-1.424s1.393.639 1.393 1.424c0 .784-.625 1.423-1.393 1.423zm30.166 0c-.768 0-1.393-.639-1.393-1.423 0-.785.625-1.424 1.393-1.424s1.393.639 1.393 1.424c0 .784-.625 1.423-1.393 1.423z"/><path d="M58.386 34.24H30.204c-.415-1.394-1.685-2.41-3.183-2.41-1.497 0-2.767 1.016-3.181 2.41H8.074a.977.977 0 00-.966.987c0 .545.432.987.966.987H23.84c.415 1.394 1.684 2.41 3.181 2.41 1.498 0 2.768-1.017 3.183-2.41h28.182a.977.977 0 00.967-.987.977.977 0 00-.967-.987zm-31.365 2.41c-.767 0-1.392-.638-1.392-1.422v-.003c0-.784.625-1.422 1.392-1.422.769 0 1.394.639 1.394 1.424 0 .785-.625 1.423-1.394 1.423zm.679-5.673c.352.208.74.312 1.127.312s.774-.104 1.127-.312l11.794-6.955a2.289 2.289 0 001.127-1.995 2.29 2.29 0 00-1.127-1.995l-11.794-6.955a2.193 2.193 0 00-2.255 0 2.29 2.29 0 00-1.127 1.995v13.91a2.29 2.29 0 001.127 1.995zm.805-15.905c0-.165.1-.25.16-.285a.31.31 0 01.322 0l11.794 6.955a.32.32 0 01.161.285.32.32 0 01-.16.285l-11.794 6.955a.306.306 0 01-.322 0 .32.32 0 01-.16-.285v-13.91z"/></g><defs><clipPath id="clip0"><path fill="#fff" d="M0 0h66v67.418H0z"/></clipPath></defs></svg>