<svg width="66" height="68" fill="none" xmlns="http://www.w3.org/2000/svg"><path d="M43.313 25.282H41.25a8.52 8.52 0 01-2.416 5.959A8.163 8.163 0 0133 33.709a8.163 8.163 0 01-5.834-2.469 8.52 8.52 0 01-2.416-5.958h-2.063c.004 2.61.954 5.126 2.669 7.062a10.252 10.252 0 006.613 3.418v4.267h-.452c-.69 0-1.36.235-1.904.67a3.167 3.167 0 00-1.098 1.724l-.64 2.617a1.077 1.077 0 00.187.904 1.014 1.014 0 00.813.405h8.25a1.013 1.013 0 00.813-.405 1.065 1.065 0 00.187-.904l-.64-2.617a3.167 3.167 0 00-1.098-1.725 3.052 3.052 0 00-1.904-.669h-.452v-4.267a10.252 10.252 0 006.613-3.418 10.676 10.676 0 002.669-7.063zm-7.829 17.652l.321 1.309h-5.61l.32-1.309c.056-.228.185-.43.367-.575.181-.145.405-.223.635-.223h2.966c.23 0 .454.078.635.223.182.145.31.347.366.575z" fill="url(#paint0_linear)"/><path d="M33 31.602a6.128 6.128 0 004.373-1.853 6.396 6.396 0 001.815-4.467v-6.32a6.39 6.39 0 00-1.813-4.47A6.122 6.122 0 0033 12.642a6.122 6.122 0 00-4.375 1.85 6.39 6.39 0 00-1.813 4.47v6.32a6.396 6.396 0 001.815 4.467A6.128 6.128 0 0033 31.602zm0-16.854c1.094 0 2.143.444 2.917 1.234a4.26 4.26 0 011.208 2.98h-3.094v2.106h3.094v2.107h-3.094v2.107h3.094a4.26 4.26 0 01-1.208 2.98A4.082 4.082 0 0133 29.495a4.082 4.082 0 01-2.917-1.234 4.26 4.26 0 01-1.208-2.98h3.094v-2.107h-3.094v-2.107h3.094V18.96h-3.094a4.26 4.26 0 011.208-2.979A4.082 4.082 0 0133 14.748z" fill="url(#paint1_linear)"/><path d="M10.313 35.816h4.124v2.106h-4.124v-2.106z" fill="url(#paint2_linear)"/><path d="M16.5 35.816h6.188v2.106H16.5v-2.106z" fill="url(#paint3_linear)"/><path d="M10.313 40.03h4.124v2.106h-4.124v-2.107z" fill="url(#paint4_linear)"/><path d="M16.5 40.03h6.188v2.106H16.5v-2.107z" fill="url(#paint5_linear)"/><path d="M10.313 44.243h4.124v2.107h-4.124v-2.107z" fill="url(#paint6_linear)"/><path d="M16.5 44.243h6.188v2.107H16.5v-2.107z" fill="url(#paint7_linear)"/><path d="M43.313 35.816h4.124v2.106h-4.124v-2.106z" fill="url(#paint8_linear)"/><path d="M49.5 35.816h6.188v2.106H49.5v-2.106z" fill="url(#paint9_linear)"/><path d="M43.313 40.03h4.124v2.106h-4.124v-2.107z" fill="url(#paint10_linear)"/><path d="M49.5 40.03h6.188v2.106H49.5v-2.107z" fill="url(#paint11_linear)"/><path d="M43.313 44.243h4.124v2.107h-4.124v-2.107z" fill="url(#paint12_linear)"/><path d="M49.5 44.243h6.188v2.107H49.5v-2.107z" fill="url(#paint13_linear)"/><path d="M18.563 27.388h2.062v-8.427h2.063v-2.107h-2.063v-2.107h-2.063v2.107H16.5v2.107h2.063v8.427z" fill="url(#paint14_linear)"/><path d="M16.5 25.282v-2.107h-2.063v-8.428h-2.062v8.428h-2.063v2.107h2.063v2.106h2.063v-2.107H16.5z" fill="url(#paint15_linear)"/><path d="M53.625 14.747h-2.063v8.428H49.5v2.107h2.063v2.106h2.062v-2.107h2.063v-2.106h-2.063v-8.428z" fill="url(#paint16_linear)"/><path d="M49.5 18.961v-2.107h-2.063v-2.107h-2.062v2.107h-2.063v2.107h2.063v8.427h2.063v-8.427H49.5z" fill="url(#paint17_linear)"/><path d="M62.905 50.564h-1.031V11.588a5.331 5.331 0 00-1.512-3.723 5.108 5.108 0 00-3.644-1.544H9.28a5.108 5.108 0 00-3.644 1.544 5.331 5.331 0 00-1.512 3.723v38.976H3.093a1.02 1.02 0 00-.73.308 1.065 1.065 0 00-.302.745v4.214a5.331 5.331 0 001.512 3.722 5.109 5.109 0 003.645 1.545H58.78a5.109 5.109 0 003.644-1.545 5.331 5.331 0 001.512-3.722v-4.214c0-.28-.108-.547-.302-.745a1.02 1.02 0 00-.729-.308zM6.186 11.588c0-.838.326-1.642.907-2.235a3.061 3.061 0 012.187-.926h47.438c.82 0 1.607.333 2.187.926.58.593.906 1.397.906 2.235v38.976H6.186V11.588zM39.58 52.67l-1.03 2.107H27.448l-1.032-2.107H39.58zm22.294 3.16c0 .839-.326 1.643-.906 2.235a3.061 3.061 0 01-2.188.926H7.218c-.82 0-1.608-.333-2.188-.926a3.195 3.195 0 01-.906-2.234v-3.16h19.988l1.776 3.63a1.02 1.02 0 00.923.583h12.375c.193.001.382-.053.546-.156.164-.103.297-.25.383-.426l1.771-3.632h19.988v3.16z" fill="url(#paint18_linear)"/><defs><linearGradient id="paint0_linear" x1="33" y1="-.674" x2="33" y2="69.147" gradientUnits="userSpaceOnUse"><stop offset="1" stop-color="#fff"/></linearGradient><linearGradient id="paint1_linear" x1="33" y1="-.674" x2="33" y2="69.148" gradientUnits="userSpaceOnUse"><stop offset="1" stop-color="#fff"/></linearGradient><linearGradient id="paint2_linear" x1="59.813" y1="34.467" x2="59.813" y2="174.111" gradientUnits="userSpaceOnUse"><stop offset="1" stop-color="#fff"/></linearGradient><linearGradient id="paint3_linear" x1="134.063" y1="34.467" x2="134.063" y2="174.111" gradientUnits="userSpaceOnUse"><stop offset="1" stop-color="#fff"/></linearGradient><linearGradient id="paint4_linear" x1="59.813" y1="38.681" x2="59.813" y2="178.324" gradientUnits="userSpaceOnUse"><stop offset="1" stop-color="#fff"/></linearGradient><linearGradient id="paint5_linear" x1="134.063" y1="38.681" x2="134.063" y2="178.324" gradientUnits="userSpaceOnUse"><stop offset="1" stop-color="#fff"/></linearGradient><linearGradient id="paint6_linear" x1="59.813" y1="42.895" x2="59.813" y2="182.539" gradientUnits="userSpaceOnUse"><stop offset="1" stop-color="#fff"/></linearGradient><linearGradient id="paint7_linear" x1="134.063" y1="42.895" x2="134.063" y2="182.539" gradientUnits="userSpaceOnUse"><stop offset="1" stop-color="#fff"/></linearGradient><linearGradient id="paint8_linear" x1="224.812" y1="34.467" x2="224.812" y2="174.111" gradientUnits="userSpaceOnUse"><stop offset="1" stop-color="#fff"/></linearGradient><linearGradient id="paint9_linear" x1="365.062" y1="34.467" x2="365.062" y2="174.111" gradientUnits="userSpaceOnUse"><stop offset="1" stop-color="#fff"/></linearGradient><linearGradient id="paint10_linear" x1="224.812" y1="38.681" x2="224.812" y2="178.324" gradientUnits="userSpaceOnUse"><stop offset="1" stop-color="#fff"/></linearGradient><linearGradient id="paint11_linear" x1="365.062" y1="38.681" x2="365.062" y2="178.324" gradientUnits="userSpaceOnUse"><stop offset="1" stop-color="#fff"/></linearGradient><linearGradient id="paint12_linear" x1="224.812" y1="42.895" x2="224.812" y2="182.539" gradientUnits="userSpaceOnUse"><stop offset="1" stop-color="#fff"/></linearGradient><linearGradient id="paint13_linear" x1="365.062" y1="42.895" x2="365.062" y2="182.539" gradientUnits="userSpaceOnUse"><stop offset="1" stop-color="#fff"/></linearGradient><linearGradient id="paint14_linear" x1="134.063" y1="6.657" x2="134.063" y2="844.519" gradientUnits="userSpaceOnUse"><stop offset="1" stop-color="#fff"/></linearGradient><linearGradient id="paint15_linear" x1="90.75" y1="6.657" x2="90.75" y2="844.519" gradientUnits="userSpaceOnUse"><stop offset="1" stop-color="#fff"/></linearGradient><linearGradient id="paint16_linear" x1="365.062" y1="6.657" x2="365.062" y2="844.519" gradientUnits="userSpaceOnUse"><stop offset="1" stop-color="#fff"/></linearGradient><linearGradient id="paint17_linear" x1="321.75" y1="6.657" x2="321.75" y2="844.519" gradientUnits="userSpaceOnUse"><stop offset="1" stop-color="#fff"/></linearGradient><linearGradient id="paint18_linear" x1="32.999" y1="-.674" x2="32.999" y2="69.148" gradientUnits="userSpaceOnUse"><stop offset="1" stop-color="#fff"/></linearGradient></defs></svg>