<svg width="66" height="68" fill="none" xmlns="http://www.w3.org/2000/svg"><g clip-path="url(#clip0)" fill="#fff"><path d="M12.567 55.552H5.154c-.711 0-1.289.59-1.289 1.317v4.214c0 .726.578 1.316 1.29 1.316h7.412c.712 0 1.289-.59 1.289-1.316v-4.214c0-.727-.577-1.317-1.29-1.317zm-1.29 4.214H6.444v-1.58h4.835v1.58zm13.361-4.214h-7.413c-.712 0-1.289.59-1.289 1.317v4.214c0 .726.577 1.316 1.29 1.316h7.412c.712 0 1.289-.59 1.289-1.316v-4.214c0-.727-.577-1.317-1.29-1.317zm-1.29 4.214h-4.834v-1.58h4.835v1.58zm13.359-4.214h-7.413c-.712 0-1.29.59-1.29 1.317v4.214c0 .726.578 1.316 1.29 1.316h7.413c.711 0 1.289-.59 1.289-1.316v-4.214c0-.727-.578-1.317-1.29-1.317zm-1.29 4.214h-4.835v-1.58h4.835v1.58zm13.358-4.214h-7.413c-.712 0-1.289.59-1.289 1.317v4.214c0 .726.577 1.316 1.29 1.316h7.412c.712 0 1.289-.59 1.289-1.316v-4.214c0-.727-.577-1.317-1.29-1.317zm-1.29 4.214h-4.834v-1.58h4.835v1.58zm13.359-4.214H53.43c-.712 0-1.289.59-1.289 1.317v4.214c0 .726.577 1.316 1.29 1.316h7.412c.711 0 1.289-.59 1.289-1.316v-4.214c0-.727-.578-1.317-1.29-1.317zm-1.29 4.214H54.72v-1.58h4.835v1.58zm-54.4-47.403c-.711 0-1.289.59-1.289 1.317v4.213c0 .728.578 1.317 1.29 1.317h7.412c.712 0 1.289-.59 1.289-1.317V13.68c0-.727-.577-1.317-1.29-1.317H5.155zm6.124 4.214H6.443v-1.58h4.835v1.58zm5.947 2.633h7.413c.712 0 1.289-.59 1.289-1.317V13.68c0-.727-.577-1.317-1.29-1.317h-7.412c-.712 0-1.289.59-1.289 1.317v4.213c0 .728.577 1.317 1.29 1.317zm1.29-4.213h4.834v1.58h-4.835v-1.58zm18.192 4.213c.711 0 1.289-.59 1.289-1.317V13.68c0-.727-.578-1.317-1.29-1.317h-7.413c-.711 0-1.289.59-1.289 1.317v4.213c0 .728.578 1.317 1.29 1.317h7.413zm-6.125-4.213h4.835v1.58h-4.835v-1.58zm26.422 39.237h.002c.712 0 1.288-.589 1.288-1.316 0-.727-.579-1.316-1.29-1.316-.712 0-1.289.59-1.289 1.316 0 .727.577 1.316 1.289 1.316zM12.102 11.045c.711 0 1.288-.59 1.288-1.316 0-.727-.577-1.316-1.288-1.316h-.003c-.711 0-1.287.589-1.287 1.316 0 .727.578 1.316 1.29 1.316z"/><path d="M63.37 8.49c.76-.993 1.541-2.013 2.355-3.071a1.337 1.337 0 00-.103-1.744L63.56 1.567a1.27 1.27 0 00-1.708-.104c-2.098 1.683-4.045 3.232-5.927 4.73l-2.783 2.216H17.287c-.712 0-1.29.59-1.29 1.317s.578 1.317 1.29 1.317h32.572c-.556.448-1.096.887-1.622 1.317h-6.875c-.712 0-1.289.589-1.289 1.316v4.214c0 .448.22.843.555 1.081a55.28 55.28 0 00-1.557 1.553H2.578v-8.691c0-.428.354-.79.774-.79h5.044c.712 0 1.29-.59 1.29-1.317s-.578-1.317-1.29-1.317H3.352C1.504 8.41 0 9.945 0 11.833v51.09c0 1.888 1.504 3.424 3.352 3.424h59.296c1.848 0 3.352-1.536 3.352-3.424v-51.09c0-1.635-1.127-3.005-2.63-3.343zm-.722 2.553c.42 0 .774.362.774.79v8.69h-9.308c.34-.428.685-.867 1.036-1.316h5.694c.711 0 1.289-.59 1.289-1.317v-4.214c0-.727-.578-1.316-1.29-1.316h-.425l.677-.888.327-.43h1.226zm-4.977 4.908l.735-.958h1.149v1.58h-2.362l.348-.452.13-.17zm-.162-7.68a2109.41 2109.41 0 005.036-4.016l.446.456c-1.38 1.8-2.673 3.495-3.93 5.142-.795 1.043-1.56 2.046-2.299 3.012a588.252 588.252 0 01-3.24 4.204l-.007.01a230.751 230.751 0 01-3.152 3.965c-4.304 5.277-7.606 8.607-10.885 10.182l-2.89-2.953c.81-1.76 2.094-3.526 3.88-5.443a1.37 1.37 0 00.16-.172c1.104-1.171 2.393-2.4 3.874-3.72a.875.875 0 00.069-.055c1.35-1.201 2.96-2.569 4.926-4.18l.02-.018c2.349-1.923 5.008-4.04 7.992-6.415zM34.731 30.1l2.938 3c-1.525 3.546-3.923 5.1-7.753 4.983.392-.948.668-1.862.924-2.708.744-2.464 1.257-4.159 3.89-5.275zm7.92-13.528v-1.58h2.419c-.636.54-1.245 1.066-1.828 1.58h-.59zm19.997 47.14H3.352a.792.792 0 01-.774-.79v-8.69H51.82c.712 0 1.29-.59 1.29-1.317 0-.728-.578-1.317-1.29-1.317H2.578V23.157h34.183c-1.16 1.476-2.047 2.91-2.675 4.374-4.047 1.579-4.893 4.367-5.71 7.069-.39 1.292-.795 2.63-1.57 3.94a1.34 1.34 0 00-.06 1.247c.185.4.555.677.984.738a18.2 18.2 0 002.595.198c2.265 0 4.162-.509 5.75-1.536 1.76-1.139 3.107-2.908 4.108-5.397 3.731-1.661 7.273-5.12 11.809-10.633h11.43v28.441H60.71c-.711 0-1.289.59-1.289 1.317s.578 1.317 1.29 1.317h2.71v8.69a.792.792 0 01-.773.791z"/></g><defs><clipPath id="clip0"><path fill="#fff" d="M0 0h66v67.418H0z"/></clipPath></defs></svg>